<svg width="245" height="40" viewBox="0 0 245 40" fill="none" xmlns="http://www.w3.org/2000/svg">
<path d="M227.786 31.507C225.33 31.507 223.311 30.9387 221.726 29.8037C220.973 29.2231 220.405 28.5697 220.029 27.8373C219.652 27.1111 219.46 26.247 219.46 25.2561V14.682C219.46 10.1343 222.596 7.86281 228.867 7.86281H236.459C239.026 7.86281 241.02 8.39082 242.433 9.46077C243.852 10.523 244.559 12.0156 244.559 13.9434V16.7429L224.558 23.9121V24.6971L224.73 25.7005L224.902 26.3539L225.013 26.5908C225.053 26.6636 225.171 26.8478 225.383 27.1389C225.587 27.43 226.465 27.574 228.017 27.574H244.843V31.5085H227.786V31.507ZM224.578 19.5595L239.404 14.1989V13.8025C239.404 13.0763 239.179 12.5622 238.724 12.251C238.269 11.9475 237.456 11.7958 236.288 11.7958H227.958C225.694 11.7958 224.558 12.7929 224.558 14.7795L224.572 19.5579H224.578V19.5595Z" fill="#E10000"/>
<path d="M203.462 31.507C201.12 31.507 199.119 30.9325 197.456 29.7836C195.793 28.6347 194.968 27.2086 194.968 25.5193V13.849C194.968 12.6273 195.172 11.6703 195.589 10.9844C196.005 10.3047 196.738 9.69767 197.8 9.16967C199.384 8.29791 201.259 7.85662 203.411 7.85662H215.082V11.7911H203.411C202.388 11.7911 201.583 12.0218 200.976 12.491C200.369 12.9602 200.071 13.5873 200.071 14.3723V24.6429C200.071 25.4016 200.407 26.0752 201.089 26.676C201.768 27.2705 202.6 27.574 203.583 27.574H215.195V31.5085H203.464L203.462 31.507Z" fill="#E10000"/>
<path d="M182.495 7.86126C183.816 7.86126 184.846 7.94642 185.584 8.12604C186.317 8.29791 187.01 8.64785 187.65 9.17586C188.291 9.69767 188.831 10.3449 189.266 11.0974C189.702 11.8562 189.92 12.5963 189.92 13.3287V25.4744C189.92 27.0785 189.174 28.4845 187.682 29.6923C186.191 30.9 184.442 31.507 182.441 31.507H172.189C170.11 31.507 168.289 30.8659 166.723 29.5854C165.159 28.3049 164.373 26.8323 164.373 25.1694V22.3311C164.373 19.9419 165.046 18.1195 166.386 16.8652C167.725 15.611 169.647 14.9839 172.135 14.9839H184.77V13.4526C184.77 12.3439 183.746 11.7958 181.707 11.7958H164.373V7.86126H182.498H182.492H182.495ZM173.657 27.5725H180.568C182.152 27.5725 183.108 27.4672 183.426 27.2427C183.743 27.0244 184.059 26.7085 184.363 26.3059C184.555 25.9559 184.68 25.606 184.759 25.2561V21.4532C184.759 20.6681 184.389 20.041 183.65 19.5719C182.918 19.1027 181.901 18.872 180.62 18.872H173.538C172.33 18.872 171.347 19.0965 170.594 19.5517C169.836 20.0008 169.459 20.6341 169.459 21.4532V25.2561C169.459 25.4868 169.571 25.8042 169.803 26.1929C170.028 26.5892 170.311 26.9129 170.655 27.1761C171.183 27.4409 172.186 27.5725 173.659 27.5725" fill="#E10000"/>
<path d="M158.311 0H153.215V31.507H158.311V0Z" fill="#E10000"/>
<path d="M122.039 13.8954C122.039 11.9738 122.719 10.4889 124.079 9.43909C125.438 8.38927 127.398 7.86746 129.967 7.86746H139.598C142.093 7.86746 144.055 8.36295 145.493 9.35238C146.925 10.3418 147.645 11.7679 147.645 13.6368V24.9572C147.645 26.7921 146.887 28.3436 145.382 29.6102C143.87 30.8783 142.001 31.5116 139.778 31.5116H127.143V40H122.047V13.9016L122.041 13.8954H122.039ZM129.848 27.1173H139.538C141.089 27.2427 142.554 25.6122 142.554 24.087V14.4884C142.554 13.0035 141.67 11.7958 139.894 11.7958H130.52C128.131 11.7958 127.147 12.858 127.147 14.1989V24.615C127.028 27.0507 127.959 27.1173 129.854 27.1173" fill="#E10000"/>
<path d="M105.487 19.2684L118.959 7.86901H111.93L100.998 17.1176C100.549 17.4676 100.245 17.8036 100.074 18.1272C100.064 18.1458 100.057 18.169 100.047 18.1891V0H94.4962V31.507H100.047V20.1943C100.244 20.5737 100.569 20.9639 101.024 21.3618L112.523 31.2701H119.553L105.485 19.2699L105.487 19.2684Z" fill="#E10000"/>
<path d="M75.7806 14.1122C75.7806 12.0125 76.3489 10.4548 77.4838 9.43909C78.0119 9.03031 78.8635 8.66643 80.0325 8.34282C81.2016 8.02539 82.2963 7.86126 83.3198 7.86126H89.9408V11.8345H83.7224C81.8349 11.8345 80.8903 12.6195 80.8903 14.1973V31.5054H75.7945V14.1122H75.7806Z" fill="#E10000"/>
<path d="M44.1606 25.7144V13.4758C44.1606 11.7525 44.8868 10.3992 46.3392 9.40972C47.7916 8.42029 49.7844 7.9248 52.3129 7.9248H61.6607C64.1165 7.9248 66.0907 8.42648 67.5818 9.42985C69.0729 10.4332 69.8192 11.7803 69.8192 13.4696V25.747C69.8192 27.4038 69.0466 28.7896 67.4951 29.8982C65.9436 31.0069 64.0034 31.555 61.6591 31.555H52.3114C49.9346 31.555 47.9805 31.0131 46.4491 29.9385C44.9178 28.8624 44.1513 27.4502 44.1513 25.7005M52.8843 27.6345H61.0955C63.511 27.6345 64.7188 26.645 64.7188 24.6646V14.7037C64.7188 12.8085 63.511 11.8655 61.0955 11.8655H52.8843C50.4688 11.8655 49.261 12.81 49.261 14.7037V24.4928C49.261 25.5689 49.5444 26.3679 50.1127 26.8758C50.6809 27.3836 51.6038 27.6422 52.8859 27.6422" fill="#E10000"/>
<path d="M5.02303 7.86126L10.9116 26.6403L16.7801 9.43754C16.9721 8.7965 17.401 8.30875 18.0808 7.97275C18.7605 7.63674 19.592 7.47106 20.569 7.47106C21.4733 7.47106 22.2847 7.64913 22.9985 8.0192C23.7123 8.38927 24.1861 8.85689 24.4106 9.43909L30.2915 26.6419L36.1801 7.86281H41.1907L34.3917 29.7588C34.2399 30.372 33.7847 30.8938 33.0322 31.3305C32.2796 31.7067 31.428 31.8987 30.4773 31.8987C28.246 31.8987 26.7874 31.0409 26.1077 29.3237L20.6821 12.7356L15.0784 29.3237C14.4373 31.0394 12.9602 31.8987 10.6561 31.8987C9.6729 31.8987 8.84141 31.7067 8.16165 31.3305C7.4819 30.9542 7.02667 30.4262 6.80215 29.7588L0 7.86126H5.02303Z" fill="#E10000"/>
</svg>
